# xmcd CD database file
# Copyright (C) 1993-1996 Ti Kan
#
# Track frame offsets:
#	182
#	17717
#	31932
#	49165
#	67900
#	83827
#	114252
#	132175
#	139667
#	160260
#	183082
#	204232
#	213477
#	226527
#
# Disc length: 3382 seconds
#
# Revision: 1
# Processed by: cddbd v1.4b41PL1 Copyright (c) Steve Scherf et al.
# Submitted via: EasyCD2 v3.00 - Copyright (c) 1997 Greg Leichner
#
DISCID=aa0d340e
DTITLE=Professor Longhair - Big Chief
DYEAR=1900
DGENRE=
TTITLE0=Big Chief
TTITLE1=Hey Little Girl
TTITLE2=How Long Has That Train Been Gone
TTITLE3=I'm Movin On
TTITLE4=Mess Around
TTITLE5=Medley: She Walks Right In/Shake, Ratle and Roll/Sick And Tired
TTITLE6=Tipitina
TTITLE7=Little Blues
TTITLE8=Her Mind Is Gone
TTITLE9=Stagger Lee
TTITLE10=I've Got My Mojo Working
TTITLE11=Rum and Coca-Cola
TTITLE12=Mardi Gras In New Orleans
TTITLE13=Doin' It
EXTD=
EXTT0=
EXTT1=
EXTT2=
EXTT3=
EXTT4=
EXTT5=
EXTT6=
EXTT7=
EXTT8=
EXTT9=
EXTT10=
EXTT11=
EXTT12=
EXTT13=
PLAYORDER=
